<svg width="19" height="20" viewBox="0 0 19 20" fill="none" xmlns="http://www.w3.org/2000/svg">
<path d="M18.6182 8.03546H17.861V7.99399H9.40055V11.991H14.7133C13.9382 14.3177 11.8555 15.988 9.40055 15.988C6.28567 15.988 3.76022 13.3035 3.76022 9.99249C3.76022 6.68148 6.28567 3.99699 9.40055 3.99699C10.8384 3.99699 12.1464 4.57356 13.1424 5.51535L15.8014 2.68898C14.1224 1.02573 11.8766 0 9.40055 0C4.20909 0 0 4.47414 0 9.99249C0 15.5108 4.20909 19.985 9.40055 19.985C14.592 19.985 18.8011 15.5108 18.8011 9.99249C18.8011 9.32249 18.7362 8.66848 18.6182 8.03546Z" fill="#FFC107"/>
<path d="M9.40057 19.9849C11.8287 19.9849 14.035 18.9972 15.7032 17.3909L12.7937 14.7738C11.8182 15.5624 10.6262 15.989 9.40057 15.9879C6.95549 15.9879 4.87938 14.3307 4.09726 12.0179L1.03174 14.5285C2.58753 17.7646 5.74705 19.9849 9.40057 19.9849Z" fill="#4CAF50"/>
<path d="M18.6182 8.0355H17.861V7.99403H9.40053V11.991H14.7132C14.3425 13.0984 13.6747 14.0661 12.7922 14.7744L12.7937 14.7734L15.7031 17.3905C15.4972 17.5893 18.8011 14.9888 18.8011 9.99253C18.8011 9.32253 18.7362 8.66853 18.6182 8.0355Z" fill="#1976D2"/>
<path d="M1.08383 5.34148L4.17238 7.74917C5.00809 5.54983 7.03203 3.99699 9.40049 3.99699C10.8383 3.99699 12.1464 4.57356 13.1424 5.51535L15.8013 2.68898C14.1224 1.02573 11.8766 0 9.40049 0C5.78974 0 2.65842 2.16687 1.08383 5.34148Z" fill="#FF3D00"/>
</svg>
